<svg width="16" height="16" xmlns="http://www.w3.org/2000/svg" xmlns:xlink="http://www.w3.org/1999/xlink" overflow="hidden"><defs><clipPath id="clip0"><rect x="632" y="352" width="16" height="16"/></clipPath></defs><g clip-path="url(#clip0)" transform="translate(-632 -352)"><path d="M632.293 352.293C632.683 351.903 633.317 351.903 633.707 352.293L640 358.586 646.293 352.293C646.677 351.896 647.31 351.885 647.707 352.268 648.104 352.652 648.115 353.285 647.732 353.682 647.724 353.691 647.715 353.699 647.707 353.707L641.414 360 647.707 366.293C648.091 366.69 648.08 367.323 647.682 367.707 647.295 368.081 646.681 368.081 646.293 367.707L640 361.414 633.707 367.707C633.31 368.091 632.677 368.08 632.293 367.682 631.919 367.295 631.919 366.681 632.293 366.293L638.586 360 632.293 353.707C631.903 353.316 631.903 352.684 632.293 352.293Z" fill="#FFFFFF"/></g></svg>